<svg width="260" height="230" viewBox="0 0 260 230" fill="none" xmlns="http://www.w3.org/2000/svg">
<g clip-path="url(#clip0_32_7261)">
<path d="M0 74.4684L119.315 2.95194C125.902 -0.98398 134.098 -0.98398 140.685 2.95194L260 74.4684V191.039L0 177.975V74.4684Z" fill="#C7D4B9"/>
<path d="M237.605 0H22.374V186.244H237.605V0Z" fill="#FCECDB"/>
<path d="M31.1564 10.3632C32.3806 10.3632 33.373 9.36961 33.373 8.14399C33.373 6.91837 32.3806 5.9248 31.1564 5.9248C29.9323 5.9248 28.9399 6.91837 28.9399 8.14399C28.9399 9.36961 29.9323 10.3632 31.1564 10.3632Z" fill="#EFCBAB"/>
<path d="M228.697 10.3632C229.921 10.3632 230.914 9.36961 230.914 8.14399C230.914 6.91837 229.921 5.9248 228.697 5.9248C227.473 5.9248 226.481 6.91837 226.481 8.14399C226.481 9.36961 227.473 10.3632 228.697 10.3632Z" fill="#EFCBAB"/>
<path d="M228.697 7.89282H31.1564V8.37434H228.697V7.89282Z" fill="#EFCBAB"/>
<path d="M31.4074 7.24377H30.9265V205.024H31.4074V7.24377Z" fill="#EFCBAB"/>
<path d="M229.032 7.24377H228.551V205.024H229.032V7.24377Z" fill="#EFCBAB"/>
<path d="M260 74.1544V230H0V74.1544L130 152.077L260 74.1544Z" fill="#D8E1CE"/>
<path d="M0 230L119.085 144.519C125.609 139.83 134.391 139.83 140.915 144.519L260 230H0Z" fill="#C7D4B9"/>
</g>
<defs>
<clipPath id="clip0_32_7261">
<rect width="260" height="230" fill="white"/>
</clipPath>
</defs>
</svg>
