<svg width="48" height="48" viewBox="0 0 48 48" fill="none" xmlns="http://www.w3.org/2000/svg">
<rect width="48" height="48" rx="8" fill="white"/>
<path d="M29 24H24M24 24L19 24M24 24L24 19M24 24L24 29" stroke="white" stroke-width="2" stroke-linecap="round"/>
<path d="M23.4069 28.5235C23.473 28.6087 23.5614 28.6785 23.6645 28.7266C23.7676 28.7748 23.8823 28.8 23.9988 28.8C24.1153 28.8 24.23 28.7748 24.3332 28.7266C24.4363 28.6785 24.5247 28.6087 24.5907 28.5235L31.0712 20.204C31.1462 20.1081 31.1902 19.9957 31.1984 19.8791C31.2066 19.7625 31.1787 19.6461 31.1177 19.5426C31.0566 19.4391 30.9649 19.3524 30.8524 19.292C30.7398 19.2316 30.6108 19.1998 30.4793 19.2H17.5183C17.3872 19.2004 17.2586 19.2327 17.1465 19.2932C17.0345 19.3538 16.9431 19.4403 16.8822 19.5436C16.8213 19.6469 16.7933 19.7629 16.8011 19.8793C16.8089 19.9957 16.8522 20.1079 16.9264 20.204L23.4069 28.5235Z" fill="#8C5D19"/>
</svg>
