<svg width="48" height="48" viewBox="0 0 48 48" fill="none" xmlns="http://www.w3.org/2000/svg">
<rect width="48" height="48" rx="8" fill="#EFE3D4"/>
<path d="M29 24H24M24 24L19 24M24 24L24 19M24 24L24 29" stroke="#DEC7AA" stroke-width="2" stroke-linecap="round"/>
<path d="M17.5202 28.7999H30.4806C30.6118 28.7996 30.7404 28.7674 30.8526 28.7067C30.9648 28.6461 31.0563 28.5594 31.1172 28.4559C31.1782 28.3525 31.2063 28.2362 31.1985 28.1195C31.1908 28.0029 31.1474 27.8903 31.0732 27.794L24.593 19.4591C24.3244 19.1136 23.6779 19.1136 23.4086 19.4591L16.9284 27.794C16.8534 27.8901 16.8094 28.0027 16.8012 28.1196C16.793 28.2364 16.8209 28.353 16.882 28.4567C16.943 28.5604 17.0347 28.6472 17.1472 28.7077C17.2598 28.7682 17.3888 28.8001 17.5202 28.7999Z" fill="#8C5D19"/>
</svg>
