<svg width="28" height="28" viewBox="0 0 28 28" fill="none" xmlns="http://www.w3.org/2000/svg">
<path d="M9.33325 15.1665H12.2499" stroke="#BE8E55" stroke-width="1.5" stroke-linecap="round"/>
<path d="M9.33325 10.5H16.9166" stroke="#BE8E55" stroke-width="1.5" stroke-linecap="round"/>
<path d="M9.33325 19.8335H11.0833" stroke="#BE8E55" stroke-width="1.5" stroke-linecap="round"/>
<path d="M3.5 11.6668C3.5 7.26705 3.5 5.06717 4.86684 3.70033C6.23367 2.3335 8.43356 2.3335 12.8333 2.3335H15.1667C19.5664 2.3335 21.7663 2.3335 23.1332 3.70033C24.5 5.06717 24.5 7.26705 24.5 11.6668V16.3335C24.5 20.7333 24.5 22.9332 23.1332 24.3C21.7663 25.6668 19.5664 25.6668 15.1667 25.6668H12.8333C8.43356 25.6668 6.23367 25.6668 4.86684 24.3C3.5 22.9332 3.5 20.7333 3.5 16.3335V11.6668Z" stroke="#DEC7AA" stroke-width="1.5"/>
<path d="M21.21 9.37905L21.7507 8.83837C22.6465 7.94255 24.099 7.94255 24.9948 8.83837C25.8906 9.7342 25.8906 11.1866 24.9948 12.0825L24.4541 12.6231M21.21 9.37905C21.21 9.37905 21.2776 10.528 22.2914 11.5418C23.3052 12.5555 24.4541 12.6231 24.4541 12.6231M21.21 9.37905L16.2393 14.3498C15.9026 14.6865 15.7343 14.8548 15.5895 15.0404C15.4187 15.2594 15.2723 15.4963 15.1529 15.7469C15.0516 15.9594 14.9763 16.1853 14.8257 16.637L14.3437 18.0832L14.1877 18.5511M24.4541 12.6231L19.4834 17.5939C19.1467 17.9305 18.9784 18.0989 18.7928 18.2436C18.5738 18.4144 18.3369 18.5608 18.0862 18.6803C17.8737 18.7816 17.6479 18.8569 17.1962 19.0074L15.75 19.4895L15.2821 19.6455M15.2821 19.6455L14.8142 19.8014C14.592 19.8755 14.3469 19.8177 14.1812 19.652C14.0155 19.4863 13.9577 19.2412 14.0318 19.0189L14.1877 18.5511M15.2821 19.6455L14.1877 18.5511" stroke="#BE8E55" stroke-width="1.5"/>
</svg>
