<svg width="28" height="28" viewBox="0 0 28 28" fill="none" xmlns="http://www.w3.org/2000/svg">
<path d="M9.33325 15.1665H12.2499" stroke="#BE8E55" stroke-width="1.5" stroke-linecap="round"/>
<path d="M9.33325 10.5H16.9166" stroke="#BE8E55" stroke-width="1.5" stroke-linecap="round"/>
<path d="M9.33325 19.8335H11.0833" stroke="#BE8E55" stroke-width="1.5" stroke-linecap="round"/>
<path d="M3.5 11.6668C3.5 7.26705 3.5 5.06717 4.86684 3.70033C6.23367 2.3335 8.43356 2.3335 12.8333 2.3335H15.1667C19.5664 2.3335 21.7663 2.3335 23.1332 3.70033C24.5 5.06717 24.5 7.26705 24.5 11.6668V16.3335C24.5 20.7333 24.5 22.9332 23.1332 24.3C21.7663 25.6668 19.5664 25.6668 15.1667 25.6668H12.8333C8.43356 25.6668 6.23367 25.6668 4.86684 24.3C3.5 22.9332 3.5 20.7333 3.5 16.3335V11.6668Z" stroke="#DEC7AA" stroke-width="1.5"/>
<circle cx="20.4167" cy="20.4165" r="1.75" stroke="#BE8E55" stroke-width="1.5"/>
<path d="M21.6181 14.0977C21.368 14 21.0509 14 20.4167 14C19.7824 14 19.4653 14 19.2152 14.0977C18.8817 14.2279 18.6167 14.4778 18.4785 14.7922C18.4155 14.9358 18.3908 15.1027 18.3811 15.3462C18.3669 15.7041 18.1723 16.0353 17.8434 16.2143C17.5144 16.3934 17.1129 16.3867 16.7771 16.2194C16.5486 16.1055 16.3829 16.0422 16.2195 16.0219C15.8616 15.9775 15.4996 16.0689 15.2132 16.2761C14.9984 16.4315 14.8398 16.6904 14.5227 17.2083C14.2056 17.7261 14.0471 17.9851 14.0117 18.2381C13.9646 18.5756 14.0616 18.9169 14.2814 19.1869C14.3817 19.3101 14.5226 19.4138 14.7414 19.5434C15.0631 19.7339 15.27 20.0585 15.27 20.4167C15.27 20.7748 15.063 21.0994 14.7414 21.2899C14.5226 21.4195 14.3816 21.5231 14.2813 21.6464C14.0615 21.9164 13.9645 22.2577 14.0117 22.5951C14.047 22.8482 14.2055 23.1072 14.5227 23.625C14.8398 24.1428 14.9983 24.4018 15.2131 24.5572C15.4995 24.7644 15.8615 24.8558 16.2194 24.8114C16.3828 24.7911 16.5485 24.7278 16.777 24.6139C17.1128 24.4466 17.5144 24.4399 17.8433 24.619C18.1723 24.798 18.3669 25.1293 18.3811 25.4872C18.3908 25.7306 18.4155 25.8976 18.4785 26.0411C18.6167 26.3556 18.8817 26.6054 19.2152 26.7356C19.4653 26.8333 19.7824 26.8333 20.4167 26.8333C21.0509 26.8333 21.368 26.8333 21.6181 26.7356C21.9517 26.6054 22.2166 26.3556 22.3548 26.0411C22.4179 25.8976 22.4425 25.7306 22.4522 25.4871C22.4664 25.1293 22.661 24.798 22.9899 24.619C23.3189 24.4399 23.7205 24.4466 24.0563 24.6139C24.2848 24.7278 24.4505 24.7911 24.6138 24.8113C24.9718 24.8558 25.3337 24.7643 25.6201 24.5571C25.8349 24.4017 25.9935 24.1428 26.3106 23.625C26.6277 23.1071 26.7863 22.8482 26.8216 22.5951C26.8687 22.2576 26.7717 21.9164 26.552 21.6463C26.4517 21.5231 26.3107 21.4195 26.0919 21.2898C25.7702 21.0993 25.5633 20.7747 25.5633 20.4166C25.5633 20.0585 25.7703 19.734 26.0919 19.5435C26.3107 19.4138 26.4517 19.3102 26.552 19.1869C26.7718 18.9169 26.8688 18.5756 26.8217 18.2382C26.7863 17.9851 26.6278 17.7262 26.3107 17.2083C25.9936 16.6905 25.835 16.4316 25.6202 16.2762C25.3338 16.069 24.9718 15.9775 24.6139 16.0219C24.4505 16.0422 24.2849 16.1055 24.0564 16.2194C23.7206 16.3867 23.319 16.3934 22.99 16.2144C22.6611 16.0353 22.4664 15.704 22.4522 15.3462C22.4425 15.1027 22.4179 14.9358 22.3548 14.7922C22.2166 14.4778 21.9517 14.2279 21.6181 14.0977Z" stroke="#BE8E55" stroke-width="1.5"/>
</svg>
