<svg width="18" height="18" viewBox="0 0 18 18" fill="none" xmlns="http://www.w3.org/2000/svg">
<g clip-path="url(#clip0_759_1965)">
<path d="M1.5 9.37492L2.81369 8.22545C3.49714 7.62743 4.52721 7.66173 5.16936 8.30389L8.38666 11.5212C8.90208 12.0366 9.71343 12.1069 10.3098 11.6878L10.5335 11.5306C11.3916 10.9275 12.5527 10.9973 13.3324 11.699L15.75 13.8749" stroke="#BE8E55" stroke-width="1.5" stroke-linecap="round"/>
<path d="M12.75 1.5V8.25M12.75 1.5L15 3.75M12.75 1.5L10.5 3.75" stroke="#BE8E55" stroke-width="1.5" stroke-linecap="round" stroke-linejoin="round"/>
<path d="M16.5 9C16.5 12.5355 16.5 14.3033 15.4017 15.4017C14.3033 16.5 12.5355 16.5 9 16.5C5.46447 16.5 3.6967 16.5 2.59835 15.4017C1.5 14.3033 1.5 12.5355 1.5 9C1.5 5.46447 1.5 3.6967 2.59835 2.59835C3.6967 1.5 5.46447 1.5 9 1.5" stroke="#BE8E55" stroke-width="1.5" stroke-linecap="round"/>
</g>
<defs>
<clipPath id="clip0_759_1965">
<rect width="18" height="18" fill="white"/>
</clipPath>
</defs>
</svg>
