<svg width="48" height="48" viewBox="0 0 48 48" fill="none" xmlns="http://www.w3.org/2000/svg">
<rect width="48" height="48" rx="8" fill="white"/>
<path opacity="0.5" fill-rule="evenodd" clip-rule="evenodd" d="M23.9146 8H24.0854C27.5211 7.99998 30.2137 7.99997 32.3145 8.28241C34.4648 8.57151 36.1616 9.17481 37.4934 10.5066C38.8252 11.8384 39.4285 13.5352 39.7176 15.6855C40 17.7863 40 20.4789 40 23.9146V24.0854C40 27.5211 40 30.2137 39.7176 32.3145C39.4285 34.4648 38.8252 36.1616 37.4934 37.4934C36.1616 38.8252 34.4648 39.4285 32.3145 39.7176C30.2137 40 27.5211 40 24.0854 40H23.9146C20.4789 40 17.7863 40 15.6855 39.7176C13.5352 39.4285 11.8384 38.8252 10.5066 37.4934C9.17481 36.1616 8.57151 34.4648 8.28241 32.3145C7.99997 30.2137 7.99998 27.5211 8 24.0854V23.9146C7.99998 20.4789 7.99997 17.7863 8.28241 15.6855C8.57151 13.5352 9.17481 11.8384 10.5066 10.5066C11.8384 9.17481 13.5352 8.57151 15.6855 8.28241C17.7863 7.99997 20.4789 7.99998 23.9146 8Z" fill="#BE8E55"/>
<path d="M29 24L24 24M24 24L19 24M24 24L24 19M24 24L24 29" stroke="white" stroke-width="2" stroke-linecap="round"/>
</svg>
