<svg width="16" height="10" viewBox="0 0 16 10" fill="none" xmlns="http://www.w3.org/2000/svg">
<path d="M1.52024 9.79995H14.4806C14.6118 9.79958 14.7404 9.76736 14.8526 9.70674C14.9648 9.64612 15.0563 9.55941 15.1172 9.45594C15.1782 9.35247 15.2063 9.23615 15.1985 9.11951C15.1908 9.00288 15.1474 8.89033 15.0732 8.79399L8.593 0.459133C8.32443 0.113557 7.67785 0.113557 7.40857 0.459133L0.928381 8.79399C0.853373 8.89013 0.809387 9.00273 0.801201 9.11957C0.793015 9.2364 0.820943 9.35299 0.88195 9.45669C0.942958 9.56038 1.03471 9.6472 1.14724 9.70772C1.25977 9.76823 1.38878 9.80013 1.52024 9.79995Z" fill="#8C5D19"/>
</svg>
