<svg width="16" height="10" viewBox="0 0 16 10" fill="none" xmlns="http://www.w3.org/2000/svg">
<path d="M7.40694 9.52347C7.473 9.60874 7.56139 9.67846 7.6645 9.72662C7.76761 9.77478 7.88235 9.79995 7.99883 9.79995C8.11531 9.79995 8.23005 9.77478 8.33316 9.72662C8.43627 9.67846 8.52466 9.60874 8.59072 9.52347L15.0712 1.20404C15.1462 1.10809 15.1902 0.995693 15.1984 0.879076C15.2066 0.76246 15.1787 0.646079 15.1177 0.54258C15.0566 0.43908 14.9649 0.35242 14.8524 0.292014C14.7398 0.231609 14.6108 0.199768 14.4793 0.199952H1.51832C1.38716 0.200433 1.25862 0.232684 1.14654 0.293234C1.03446 0.353784 0.94307 0.440344 0.882201 0.543604C0.821332 0.646864 0.793286 0.762918 0.80108 0.879285C0.808874 0.995652 0.852212 1.10793 0.926435 1.20404L7.40694 9.52347Z" fill="#8C5D19"/>
</svg>
